<svg width="786" height="763" viewBox="0 0 786 763" fill="none" xmlns="http://www.w3.org/2000/svg">
<path d="M22.4651 86.9008C-0.749795 -3.49029 27.1242 -80.6978 106.087 -144.722C185.051 -208.746 277.042 -252.206 382.061 -275.103C487.08 -298 589.056 -293.815 687.989 -262.547C786.922 -231.279 869.043 -187.244 934.351 -130.442C999.659 -73.6402 1048.94 -11.5728 1082.2 55.7599C1115.46 123.093 1150.02 196.749 1185.87 276.729C1221.73 356.709 1199.86 423.261 1120.28 476.384C1040.7 529.507 965.382 577.768 894.33 621.165C823.278 664.562 739.57 704.981 643.205 742.423C546.841 779.864 462.094 765.438 388.967 699.142C315.839 632.847 226.841 581.446 121.974 544.938C17.1066 508.431 -19.8914 445.562 10.9801 356.332C41.8516 267.102 45.68 177.292 22.4651 86.9008Z" fill="black"/>
</svg>
