<svg width="1440" height="1024" viewBox="0 0 1440 1024" fill="none" xmlns="http://www.w3.org/2000/svg">
<g clip-path="url(#clip0)">
<rect width="1440" height="1024" fill="white"/>
<path d="M633.465 102.901C610.25 12.5097 638.124 -64.6978 717.087 -128.722C796.051 -192.746 888.042 -236.206 993.061 -259.103C1098.08 -282 1200.06 -277.815 1298.99 -246.547C1397.92 -215.279 1480.04 -171.244 1545.35 -114.442C1610.66 -57.6402 1659.94 4.42719 1693.2 71.7599C1726.46 139.093 1761.02 212.749 1796.87 292.729C1832.73 372.709 1810.86 439.261 1731.28 492.384C1651.7 545.507 1576.38 593.768 1505.33 637.165C1434.28 680.562 1350.57 720.981 1254.21 758.423C1157.84 795.864 1073.09 781.438 999.967 715.142C926.839 648.847 837.841 597.446 732.974 560.938C628.107 524.431 591.109 461.562 621.98 372.332C652.852 283.102 656.68 193.292 633.465 102.901Z" fill="black"/>
</g>
<defs>
<clipPath id="clip0">
<rect width="1440" height="1024" fill="white"/>
</clipPath>
</defs>
</svg>
